<svg width="1920" height="1080" viewBox="0 0 1920 1080" fill="none" xmlns="http://www.w3.org/2000/svg">
  <rect width="1920" height="1080" fill="#1A1A1A"/>
  <path d="M960 270C760 270 600 430 600 630C600 830 760 990 960 990C1160 990 1320 830 1320 630C1320 430 1160 270 960 270ZM960 330C1127.32 330 1260 462.68 1260 630C1260 797.32 1127.32 930 960 930C792.68 930 660 797.32 660 630C660 462.68 792.68 330 960 330Z" fill="#FF3E3E" fillOpacity="0.1"/>
  <path d="M960 390C826.863 390 720 496.863 720 630C720 763.137 826.863 870 960 870C1093.14 870 1200 763.137 1200 630C1200 496.863 1093.14 390 960 390ZM960 450C1060.46 450 1140 529.544 1140 630C1140 730.456 1060.46 810 960 810C859.544 810 780 730.456 780 630C780 529.544 859.544 450 960 450Z" fill="#FF3E3E" fillOpacity="0.2"/>
  <circle cx="960" cy="630" r="120" fill="#FF3E3E" fillOpacity="0.3"/>
  
  <!-- Binary Code Pattern -->
  <text fill="#FF3E3E" fillOpacity="0.1" fontFamily="monospace" fontSize="24">
    <tspan x="100" y="100">01001000 01000101 01001100 01001100 01001111</tspan>
    <tspan x="100" y="140">01010111 01001111 01010010 01001100 01000100</tspan>
    <tspan x="100" y="180">01010011 01000101 01000011 01010101 01010010 01000101</tspan>
  </text>
  
  <!-- Grid Pattern -->
  <path d="M0 0h1920v1080h-1920z" stroke="#FF3E3E" strokeOpacity="0.05" strokeWidth="1" pathLength="1" strokeDasharray="4 4"/>
</svg> 