<svg width="1920" height="1080" viewBox="0 0 1920 1080" fill="none" xmlns="http://www.w3.org/2000/svg">
  <rect width="1920" height="1080" fill="#1A1A1A"/>
  
  <!-- Bug Pattern -->
  <g transform="translate(860,480) scale(2)">
    <path d="M50 0C22.4 0 0 22.4 0 50C0 77.6 22.4 100 50 100C77.6 100 100 77.6 100 50C100 22.4 77.6 0 50 0ZM50 10C72.1 10 90 27.9 90 50C90 72.1 72.1 90 50 90C27.9 90 10 72.1 10 50C10 27.9 27.9 10 50 10Z" fill="#FF3E3E" fillOpacity="0.2"/>
    <circle cx="35" cy="40" r="5" fill="#FF3E3E"/>
    <circle cx="65" cy="40" r="5" fill="#FF3E3E"/>
    <path d="M30 60C30 60 40 70 50 70C60 70 70 60 70 60" stroke="#FF3E3E" strokeWidth="3" fill="none"/>
  </g>
  
  <!-- Code Lines -->
  <g transform="translate(200,200)" fill="#FF3E3E" fillOpacity="0.1">
    <rect y="0" width="400" height="2" />
    <rect y="20" width="300" height="2" />
    <rect y="40" width="350" height="2" />
    <rect y="60" width="250" height="2" />
  </g>
  
  <!-- Target Pattern -->
  <g transform="translate(1320,480)">
    <circle cx="0" cy="0" r="100" stroke="#FF3E3E" strokeOpacity="0.1" strokeWidth="2" fill="none"/>
    <circle cx="0" cy="0" r="75" stroke="#FF3E3E" strokeOpacity="0.2" strokeWidth="2" fill="none"/>
    <circle cx="0" cy="0" r="50" stroke="#FF3E3E" strokeOpacity="0.3" strokeWidth="2" fill="none"/>
    <circle cx="0" cy="0" r="25" fill="#FF3E3E" fillOpacity="0.4"/>
  </g>
  
  <!-- Grid Pattern -->
  <path d="M0 0h1920v1080h-1920z" stroke="#FF3E3E" strokeOpacity="0.05" strokeWidth="1" pathLength="1" strokeDasharray="4 4"/>
</svg> 